<svg width="32" height="32" viewBox="0 0 32 32" fill="none" xmlns="http://www.w3.org/2000/svg">
<g clip-path="url(#clip0_158_145)">
<path d="M31.9275 1.3721C32.0003 1.19037 32.0181 0.991292 31.9788 0.799539C31.9394 0.607787 31.8447 0.431795 31.7063 0.293382C31.5679 0.154969 31.3919 0.0602219 31.2001 0.020887C31.0084 -0.0184479 30.8093 -0.000640906 30.6275 0.0721004L1.53355 11.7101H1.53155L0.627546 12.0701C0.456327 12.1384 0.307317 12.2527 0.196978 12.4004C0.086638 12.548 0.0192624 12.7233 0.00229331 12.9069C-0.0146758 13.0904 0.0194221 13.2751 0.10082 13.4405C0.182219 13.6059 0.307749 13.7456 0.463546 13.8441L1.28355 14.3641L1.28555 14.3681L11.2755 20.7241L17.6315 30.7141L17.6355 30.7181L18.1555 31.5381C18.2544 31.6933 18.3941 31.8182 18.5594 31.8991C18.7247 31.98 18.9091 32.0137 19.0923 31.9965C19.2755 31.9794 19.4504 31.912 19.5978 31.8018C19.7451 31.6917 19.8592 31.543 19.9275 31.3721L31.9275 1.3721ZM28.2615 5.1521L13.2735 20.1401L12.8435 19.4641C12.7648 19.3401 12.6596 19.2349 12.5355 19.1561L11.8595 18.7261L26.8475 3.7381L29.2035 2.7961L28.2615 5.1521Z" fill="white"/>
</g>
<defs>
<clipPath id="clip0_158_145">
<rect width="32" height="32" fill="white"/>
</clipPath>
</defs>
</svg>
